<svg viewBox="0 0 178.5 284.9" xmlns="http://www.w3.org/2000/svg"><path fill="none" stroke="#000" stroke-linecap="square" stroke-miterlimit="10" stroke-width=".413" d="M79.1 61.1h9.3m0 0h.1v.1h-.1v-.1m-9.3 3.5h4.6m0 0h.1v.1h-.1v-.1m0-4.7v4.7"/><path fill="none" stroke="#000" stroke-linecap="square" stroke-miterlimit="10" stroke-width=".413" d="M83.7 64.6h.1v.1h-.1v-.1m-4.6-4.7h4.6m0 0h.1v.1h-.1v-.1m-.5 0v-4.4m0 0h.1v.1h-.1v-.1m-.6-.5l.6.5"/><path fill="none" stroke="#000" stroke-linecap="square" stroke-miterlimit="10" stroke-width=".413" d="M83.2 55.5h.1v.1h-.1v-.1m-3-.5h2.4m0 0h.1v.1h-.1V55m-3 4.9v-4.4m0 0h.1v.1h-.1v-.1m0 0l.6-.5m0 0h.1v.1h-.1V55m-1.1 12.2v-7.3m2.8-2.5c-.1-.3-.3-.5-.5-.5-.3 0-.5.2-.5.5s.2.6.5.6.5-.3.5-.6m-2.8 2.5h.1v.1h-.1v-.1m-64.8 47.7h1.1m58-60.8l-4.8 1.3m9.8-2.3l-5 1m10-1.6l-5 .5m10-.7l-5 .2M69.6 55.4l1.3-.3m-2.6.4l1.3-.1m-2.4-.1l1.1.2m-2.2-.7l1 .4m-1.7-1.1l.7.7m-1.2-1.5l.5.8m-.6-1.8l.1 1m.2-2l-.2 1m.6-2l-.5 1m1.4-1.9l-.8.9m1.8-1.6l-1 .8m2.2-1.4l-1.2.5M50.8 70.7c-3.6 3.5-6.7 7.5-9.2 11.8m13.7-7c-3.2 3.1-5.9 6.5-8.1 10.4m12.6-3.5c-2.1 2.2-4 4.7-5.5 7.4m1.5-11.3c-2.5 2.6-4.6 5.5-6.4 8.5m7.5-9.2l-1 .8m2.1-1.4l-1.1.5m2.2-.7l-1.1.2m2.1-.1l-1-.1m1.8.6l-.8-.5m1.3 1.2l-.5-.7m.6 1.7l-.1-1m-.1 2l.2-1.1m-.8 2.2l.5-1.1M60 82.5l.8-1.1M52 69.9l-1.1.8m3.6-1.5l-1.3.2-1.2.5m3.6-.5l-1.1-.2m2 .8l-.9-.6m1.5 1.5l-.6-.9m.7 2l-.1-1.1m-.1 2.3l.2-1.2m-.8 2.4l.6-1.2m-1.6 2.3l1-1.1M45.1 61.7c-5 4.5-9.3 9.8-12.6 15.6M50 67.1c-4.5 4-8.2 8.7-11.2 13.9m7.4-20l-1 .8m2.2-1.4l-1.2.6m2.3-.8l-1.1.2m2.2-.2h-1.1m2.1.3l-1-.4m1.8 1l-.8-.5m1.3 1.3l-.5-.8m.7 1.8l-.2-1M52 64l.1-1.1m-.5 2.2L52 64m-1 2.2l.6-1.1m-1.5 2l.9-1m0 40.6l-.1 2.9m.4-5.9l-.3 2.9m.9-5.7l-.6 2.9m1.4-5.8l-.8 2.9m1.8-5.6l-1 2.7m2.3-5.4l-1.3 2.7m2.7-5.3L55 92.6m3-5.1L56.4 90m3.5-4.7L58 87.5m3.9-4.4l-2 2.2m4.1-4.2l-2.2 2m4.6-3.8L64 81.1m4.8-3.5l-2.4 1.7m5-3.2l-2.6 1.4m5.3-2.6l-2.7 1.3m5.4-2.3l-2.8 1m5.6-1.8l-2.8.8m5.8-1.4l-2.9.5m5.8-.8l-2.9.4m5.8-.5l-2.9.1m-66.3 32.4l-.2 5m.8-9.9l-.5 4.9m1.3-9.7l-.8 4.9m2.1-9.7l-1.3 4.8m2.8-9.5l-1.6 4.7m3.5-9.3l-1.9 4.6m4.1-9l-2.2 4.4m4.7-8.7l-2.5 4.3m5.3-8.4L30 72m6-7.8L32.8 68m6.5-7.5L36 64.2m7-7l-3.7 3.4m7.5-6.5L43 57.2m7.9-6L46.8 54m8.4-5.3l-4.3 2.5m8.7-4.7l-4.4 2.2m9-4.1l-4.6 1.9m9.2-3.5l-4.7 1.6m9.6-2.8L68.8 43m9.8-2.1l-4.9.9m9.8-1.4l-4.9.5m9.8-.7l-4.9.2m-68.1 67.2h.1v.1h-.1v-.1m71.1-71.1v-1.1m-74.1 73.7l-.1.5m.3-.9l-.2.5m.5-1l-.3.4m.7-.7l-.4.3m.9-.4l-.4.2m.9-.4l-.5.1m2.1.1l-.5-.1m1 .2l-.5-.2m.9.5l-.4-.3m.7.8l-.2-.4m.4.8l-.2-.5m.3 1l-.1-.5m69.2-73.6h.1v.1h-.1v-.1M34.6 58.6l.8.8M86.5 35l-.1.5m.3-1l-.2.5m.5-.9l-.3.4m.7-.7l-.4.3m.9-.5l-.5.2m1-.3l-.5.1m0 4.9l.5.1m-1-.3l.5.2M87 38l.4.3m-.7-.7l.3.4m-.5-.9l.2.5m-.2-1.1l.1.5M35.4 59.3h.1v.1h-.1v-.1"/><path fill="none" stroke="#000" stroke-linecap="square" stroke-miterlimit="10" stroke-width=".413" d="M37.4 55.8l.8.8m-3.6-.8c-.4.4-.5.8-.5 1.3s.2 1 .5 1.3m.8.9c.4.4.8.6 1.4.6.5 0 1-.2 1.3-.6m.1-2.7h.1v.1h-.1v-.1"/><path fill="none" stroke="#000" stroke-linecap="square" stroke-miterlimit="10" stroke-width=".413" d="M14.3 111.5h1.1m70.1 35.6l2.9.1m-5.8-.5l2.9.4m-5.9-.9l2.9.5m-5.7-1.4l2.8.8m-5.5-1.8l2.8 1m-5.5-2.2l2.7 1.2m-5.3-2.7l2.6 1.5m-5-3.1l2.4 1.6m-4.8-3.4l2.3 1.8m-4.4-3.8l2.2 2m-4.2-4.2l2 2.2m-3.9-4.5l1.9 2.3m-3.5-4.8l1.6 2.5m-3-5l1.4 2.6m-2.7-5.3l1.3 2.6m-2.3-5.4l1 2.8m-1.8-5.6l.8 2.8m-1.4-5.7l.6 2.9m-.9-5.8l.3 2.9m-.4-5.9l.1 2.9m32.5 66.4l4.9.2m-9.8-.8l4.9.5m-9.8-1.4l4.9.9m-9.8-2.1l4.9 1.2m-9.5-2.7l4.7 1.6m-9.3-3.6l4.6 1.9m-9-4.1l4.4 2.2m-8.7-4.7l4.3 2.5m-8.4-5.3l4.1 2.8m-7.9-5.9l3.8 3.1m-7.5-6.5l3.7 3.4m-7-7l3.4 3.6m-6.6-7.5l3.1 3.9m-5.9-8l2.8 4.1m-5.3-8.3l2.5 4.3m-4.7-8.7l2.2 4.4m-4.1-9l1.9 4.6m-3.4-9.3l1.6 4.7m-2.9-9.5l1.3 4.8m-2.1-9.7l.8 4.9m-1.4-9.9l.5 5m-.7-9.9l.2 4.9m18.1-58.7c-.4-.4-.8-.5-1.3-.5s-1 .2-1.4.5m3.5 3.5c.4-.4.6-.8.6-1.3s-.2-1-.6-1.4m-22.7 54.9h.1v.1h-.1v-.1m71.1 72.3v-1.1m-72.7-71.2l.5.1m-1-.3l.4.2m-.8-.5l.4.3m-.7-.7l.3.4m-.5-.8l.2.4m-.2-1l.1.5m4.8.1l.1-.5m-.6 1.3l.5-.8m-.9 1.1l.4-.3m-.9.5l.5-.2m-1 .2l.5-.1m70.6 71.2h.1v.1h-.1v-.1m-51.9-21.9l.8-.8m52.5 25.7l.5.1m-1-.2l.5.2m-.9-.5l.4.3m-.7-.8l.3.4m-.5-.8l.2.5m-.2-1l.1.5m-.1-2.1l-.1.5m.3-1l-.2.5m.5-.9l-.3.4m.7-.7l-.4.3m.9-.5l-.5.2m1-.3l-.5.1m-52.5-20.9h.1v.1h-.1v-.1m2 3.5l.8-.8m-3.6-2c-.4.4-.5.8-.5 1.4 0 .5.2 1 .5 1.3m3.5-3.5c-.4-.4-.8-.5-1.3-.5s-1 .2-1.4.5m2.8 2.8h.1v.1h-.1v-.1m32-100.2l2 3.5m4.7 1.8l1.1-.2m-2.3.2l1.2-.1m-2.3 0l1.1.2m-2.1-.6l1 .4m-1.8-.9l.8.5m-1.4-1.3l.6.7m-2.9-5l.3.8m-.3-1.7l-.1.9m.4-1.8l-.3.8m.9-1.6l-.6.8m1.5-1.5l-.9.7m2-1.2l-1.1.5m8.8 8.7l-2.5.5m5.1-1l-2.6.5m5.3-.7l-2.6.2m5.2-.3l-2.6.1m-51.2 97c.4.4.8.6 1.4.6.5 0 1-.2 1.3-.6m.8-.8c.4-.4.6-.8.6-1.3s-.2-1-.6-1.4m34.1-93.9h.1v.1h-.1v-.1m4.7 86.4l1.1.4m-2-.9l1 .5m-1.8-1.1l.8.6m-1.3-1.3l.5.7m-.7-1.3l.2.7m-.2-1.3l-.1.6m-1.8 10.7l1.2.5m-2.2-1.2l1 .7m-1.8-1.4l.8.7m-1.3-1.5l.5.8m-.8-1.6l.2.8m0-1.6l-.1.7M67.5 170l1.3.5m-2.4-1.3l1.1.8m-1.9-1.6l.8.8m-1.3-1.7l.5.9m-.7-1.8l.2.9m0-1.8l-.2.8m20.9-12.6l2.6.1m-5.2-.3l2.6.2m-5.3-.6l2.6.4m-5.1-.9l2.5.5m4.2 9.7l3.7.1m-7.4-.6l3.7.4m-7.3-1l3.7.6m-7.3-1.5l3.6.9m6 11.5l5 .2m-9.9-.7l4.9.5m-9.8-1.6l4.9 1m-9.7-2.3l4.8 1.3m11.1-8.2l3.7.1m-7.4-.5l3.7.4m-7.5-1.1l3.7.7m-7.3-1.6l3.7.9m7.8-5.5l3.3.1m-6.5-.4l3.2.3m-6.5-.9l3.2.6m-6.4-1.4l3.2.8m7.5-7.2l2.3.1m-4.6-.3l2.3.2m-4.7-.6l2.3.4m-4.5-.8l2.3.4m4.3 6.2l2.6.1m-5.3-.3l2.7.2m-5.3-.6l2.6.4m-5.3-1l2.6.6m-3.8-1.1l1.2.5m-2.2-1.1l1 .7m-1.8-1.6l.8.8m-1.2-1.7l.4 1m-.3-1.9l-.1.8m.4-1.6l-.4.8m1.2-1.4l-.8.5m1.8-.9l-1 .4m2.2-.4l-1.2.1m2.6 0l-1.3-.2M72.3 161l1.3.6m-2.4-1.4l1.1.8m-1.9-1.8l.8 1m-1.2-2.1l.4 1.1m-.3-2.1l-.1 1m.6-2l-.5 1m1.3-1.6l-.8.7M74 155l-1.4.1-1.2.4m4-.2L74 155m9.4 19l5 .2m-10-.8l5 .6m-10-1.6l5 1m-9.8-2.3l4.8 1.4m10.6-5.8l4.4.1m-8.9-.6l4.4.5m-8.8-1.4l4.4.9m-8.7-2.1l4.3 1.2m-7.7 5.2l1.2.5m-2.2-1.2l1 .7m-1.9-1.6l.8.9m-1.2-1.9l.5 1m-.8-2l.2 1m-.1-1.9l-.1 1m.6-1.9l-.5.8m1.2-1.4l-.7.7m1.8-1.2l-1 .5m2.1-.8l-1.1.2m2.4-.1l-1.3-.1m2.5.4l-1.3-.3m-8.9-22l.5-.4m-1.3.6l.7-.1m-1.5-.1l.8.1m-1.7-.4l.9.4m-1.9-1l1 .5m-1.8-1.2l.8.7m-1 8.6l.5-.5m-1.3.7l.8-.2m-1.8.1l1 .1m-2-.4l1 .3m-2.1-.8l1.1.5m-2-1.3l1 .8m-1.4 9.7l.6-.5m-1.5.8l.9-.3m-1.9.3h1m-2.2-.3l1.2.3m-2.4-.9l1.1.6m-2.1-1.4l1.1.8m3.3-26.2c1.7 3.1 3.8 5.9 6.3 8.4m-14.2-3.8c2.5 4.3 5.5 8.2 9.1 11.7M33 141.5c3.3 5.8 7.6 11 12.5 15.5m-4-20.4c2.5 4.3 5.6 8.3 9.2 11.8m-3.4-15.1c2.2 3.8 4.9 7.3 8 10.4m-1-14.5c1.6 2.8 3.4 5.2 5.6 7.5m-10.4-4.6c1.7 3.1 3.9 5.9 6.4 8.5m4.8-2.8l-.8-1m1.4 2.1l-.5-1.1m.7 2.1l-.2-1m.1 2l.1-1m-.6 1.8l.5-.7m-1.3 1.1l.8-.5m-1.8.7l1-.1M58 142l1.1.2m-2.2-.7l1.1.5m-2.1-1.4l1 .8m-.5 3.4l-1-1.1M57 146l-.6-1.2m.8 2.4L57 146m.1 2.3l.1-1.1m-.7 2l.5-.9m-1.4 1.5l.9-.6m-3.3.7l1.3.1 1.1-.2m-3.6-.5l1.3.5m-2.5-1.4l1.1.9m-19.4-7.5c3.3 5.8 7.6 11 12.6 15.6m-6.3-19.2c2.9 5.1 6.7 9.8 11.2 13.8m1 1.1l-.9-1m1.5 2l-.6-1m1 2.1l-.5-1.1m.6 2.2l-.1-1.1m-.6 2.9l.5-.8.2-1m-1.5 2.4l.8-.6m-1.8 1l1-.4m-2.1.4h1.1m-2.2-.3l1.1.2m-2.3-.7l1.2.5m-2.3-1.2l1 .7m-.4-37.3l.2 1.1m-.2-2.2v1.1m.1-2l-.1 1m.4-1.8l-.3.8m.8-1.3l-.5.5m1.1-.8l-.6.2m-10.2 3.8l.2 1.2m-.2-2.4l-.1 1.2m.4-2.2l-.3 1m.8-1.9l-.4.9m.9-1.5l-.5.6m1.2-.9l-.7.2m-11.9 4.1l.1 1.4m-.1-2.7l-.1 1.3m.5-2.5l-.4 1.1m.9-2l-.5.9m1.1-1.5l-.7.6m1.6-.9l-.8.3m18.5 4.3c1 3.4 2.3 6.7 4.1 9.7m-13.4-9.2c1.2 4.9 3.1 9.5 5.6 13.7M25.9 123c1.4 6.5 3.8 12.8 7.1 18.5m3-18.8c1.2 4.9 3.1 9.5 5.6 13.9m.7-15.5c1.1 4.3 2.8 8.4 5 12.2m3.3-12.6c.9 3 2.1 5.9 3.7 8.5m-9-6.9c1 3.4 2.4 6.7 4.2 9.8M45.1 121l.2 1.3m-.1-2.5l-.1 1.3m.5-2.4l-.4 1.1m.9-1.9l-.5.8m1.3-1.2l-.8.4m1.7-.5l-.9.1m1.8.2l-.9-.4m1.7 1.2l-.8-.8m1.5 1.8l-.7-1m1.2 2.2l-.4-1.2m-14.5 1.8l.1 1.4m.1-2.8l-.2 1.4m.6-2.5l-.4 1.1m1.2-2l-.8.9m1.8-1.3l-1 .4m2-.5l-1 .1m2.1.3l-1.1-.4m2 1.3l-.9-.8m1.6 1.9l-.7-1.1m1.2 2.4l-.5-1.3m-16.6 3.3c1.4 6.6 3.8 12.9 7.2 18.8m-.1-20.3c1.3 5.8 3.4 11.5 6.4 16.6m-13.6-16.3l.1 1.3m0-2.6l-.1 1.3m.4-2.4l-.4 1.1m1-2.1l-.6 1m1.4-1.7l-.8.7m1.7-1l-.9.4m1.9-.5l-1 .1m1.9.2l-1-.3m1.9 1l-.9-.7m2.3 2.7l-.5-1.1-.8-.9m1.6 3.2l-.4-1.3m14.6-18.7l.6.2m-1.1-.8l.5.5m-.8-1.2l.3.8m-.4-1.8l.1 1m-.1-2.1v1.1m.2-2.2l-.2 1.1m-8 3.3l.7.3m-1.2-.8l.5.5m-1-1.4l.4.8m-.7-1.8l.3 1.1m-.3-2.3l.1 1.2m.1-2.5l-.2 1.3m-9.1 3.6l.8.3m-1.4-.9l.7.6m-1.2-1.5l.5 1m-.9-2.1l.4 1.1m-.4-2.4l.1 1.3m0-2.7l-.1 1.4M50 87.4c-1.8 3.1-3.2 6.3-4.1 9.7m-3.8-14.2c-2.5 4.3-4.4 8.9-5.6 13.7m-3.5-19c-3.3 5.8-5.8 12.1-7.1 18.6m15.6-13.7c-2.5 4.3-4.4 9-5.6 13.9m11.3-10.5c-2.2 3.8-3.8 7.9-4.9 12.2m12-8.2c-1.6 2.7-2.8 5.6-3.7 8.6m-1.1-11.4c-1.8 3.1-3.2 6.4-4.2 9.8m4.9 2.8l.4-1.2m-1.1 2.2l.7-1m-1.5 1.8l.8-.7m-1.7 1l.9-.4m-1.8.4l.9.1m-1.7-.6l.8.4m-1.3-1.1l.5.8m-.9-1.9l.4 1.1m-.5-2.4l.1 1.3m.1-2.6l-.2 1.3m-3.2 1.2l.5-1.3m-1.2 2.5l.7-1.1m-1.6 1.9l.9-.8m-2 1.2l1.1-.4m-2.1.4l1 .1m-2-.6l1 .4m-1.8-1.3l.8.9m-1.2-2l.4 1.1m-.6-2.5l.2 1.4m0-2.8l-.1 1.4m-3.4-20.6c-3.4 5.8-5.8 12.1-7.2 18.7m13.5-15.1c-3 5.2-5.1 10.7-6.4 16.6m-.3 1.4l.4-1.3m-1 2.4l.5-1.1m-1.3 2l.8-.9m-1.7 1.5l.9-.7m-1.8 1l1-.3m-2 .3l1 .1m-1.9-.5l.9.4m-1.7-1.1l.8.7m-1.4-1.6l.6 1m-.9-2.2l.4 1.1m-.5-2.3l.1 1.3m0-2.6l-.1 1.3m31.9-19.1l-.8.7m1.8-1.3l-1 .6m2.7-1l-.8.1-.9.3m2.5-.3l-.7-.1m1.1.5l-.5-.4m-8.3-7l-1 .8m2.1-1.3l-1.1.5m2.1-.9l-1 .4m2-.4h-1m1.8.3l-.8-.2m1.4.6l-.5-.4m-9.6-8.4l-1.1.8m2.3-1.4l-1.1.6m2.3-.9l-1.2.3m2.2-.3h-1m1.9.2l-.9-.2m1.5.8l-.6-.6M56.2 79c-2.4 2.5-4.5 5.3-6.2 8.4m1.2-16.2c-3.5 3.4-6.6 7.3-9.1 11.6m3.4-20.7c-5 4.5-9.2 9.7-12.5 15.5m49.6 109.6l5.8.2m-11.6-.9l5.8.7m-11.5-1.7l5.7 1.1M65.5 184l5.6 1.5M60 182l5.5 1.9m-10.8-4.2L60 182m-10.5-5l5.2 2.7m-10.1-5.8l4.9 3.1m-9.6-6.5l4.7 3.4m-9.1-7.3l4.4 3.8m-8.5-7.9l4.1 4.1m-7.9-8.5l3.8 4.4m-7.3-9l3.5 4.6m-6.6-9.5l3.1 4.9m-5.8-10.1l2.7 5.2m-5-10.5l2.3 5.3m-4.2-10.9l2 5.5m-3.5-11.1l1.5 5.6m-2.6-11.3l1.1 5.7m-1.8-11.5l.7 5.8m-.9-11.6l.2 5.8m0-11.6l-.2 5.8m.9-11.6l-.7 5.8m1.8-11.5L11.5 98m2.6-11.4l-1.5 5.6m3.4-11l-2 5.5m4.3-10.9L16 81.2m5-10.5l-2.7 5.1m5.8-10L21 70.7m6.6-9.6l-3.5 4.7m7.3-9.1l-3.8 4.4m7.9-8.5l-4.1 4.1m8.5-7.9l-4.4 3.8m9.1-7.3l-4.7 3.5m9.6-6.6l-4.9 3.1m10.1-5.8l-5.2 2.7m10.5-5l-5.3 2.3m10.8-4.2L60 37.2m11.1-3.5l-5.6 1.6m11.3-2.6l-5.7 1M82.6 32l-5.8.7m11.6-.9l-5.8.2M82 68.6c.1.3.5.5.9.5s.8-.2.9-.5m.1.3c-.1-.4-.5-.7-1-.7s-.9.3-.9.7c0 .4.4.7.9.7.6.1 1-.3 1-.7m1.9-12.7l-2.6.2m5.2-.2l-2.6.1m0-.7l-2.6.2m5.2-.3l-2.6.1m-6.2 1.3c-2 .3-4 .7-5.9 1.3m5.9-2c-2.3.4-4.6.8-6.8 1.6m2.3-3.9l-4.3 1.3m8.7-2.2l-4.4.8m8.9-1.3l-4.5.5m8.9-.7l-4.4.2m-14 9.1l.1.8m.2-1.5l-.3.7m.8-1.5l-.5.8m1.3-1.6l-.8.7m1.8-1.3l-1 .7m2.2-1.2l-1.2.5m-7.7-6.1l.2.8m0-1.6l-.2.8m.7-1.7l-.5.9m1.3-1.8l-.8.8m1.9-1.5l-1.1.7m2.4-1.3l-1.3.6m6.1-2l-4.8 1.4m9.7-2.3l-4.9 1m9.8-1.6l-4.9.6m9.9-.8l-5 .2m-29.6 9.9l11.1 19.2m0 0h.1v.1h-.1v-.1m-5.8-22.2l11.1 19.2m0 0h.1v.1h-.1v-.1M56.2 55l10.5 18.2m0-.1c.1.2.2.4.5.4.1 0 .2-.1.3-.1"/><path fill="none" stroke="#000" stroke-linecap="square" stroke-miterlimit="10" stroke-width=".413" d="M66.7 73.2h.1v.1h-.1v-.1m-9.4-18.8l10.5 18.2m-.3.8c.2-.1.3-.2.3-.5 0-.1-.1-.2-.1-.3M56.4 54.2c-.2.1-.2.3-.2.5 0 .1 0 .2.1.3m11.5 17.7h.1v.1h-.1v-.1"/><path fill="none" stroke="#000" stroke-linecap="square" stroke-miterlimit="10" stroke-width=".413" d="M24.4 112.6h22.2m12.3-59.9c-.5-1-1.5-1.5-2.6-1.5-.5 0-1 .1-1.5.4M69 76c.9-.5 1.5-1.5 1.5-2.6 0-.5-.2-1-.4-1.4M54.9 51.5c-.9.5-1.4 1.5-1.4 2.6 0 .5.1 1 .4 1.4m11 19.3c.5 1 1.5 1.6 2.6 1.6.5 0 1-.2 1.5-.4M57.1 54.4c-.1-.2-.2-.3-.5-.3-.1 0-.2 0-.3.1m-9.7 58.4h.1v.1h-.1v-.1m-22.2-6h22.2m0 0h.1v.1h-.1v-.1M25 109h21.1m.1 0h-.1m.3.1l-.2-.1m.3.2l-.1-.1m.2.3l-.1-.2m.1.4v-.2m-.5-.4h.1v.1h-.1v-.1M25 110.2h21.1m.5-.4v-.2m-.1.4l.1-.2m-.2.4l.1-.1m-.3.1l.2-.1m-.3.1h.1m-21.7-.8l-.1.2m.2-.4l-.1.2m.2-.3l-.1.1m.3-.2l-.2.1m.3-.1h-.1m21.2 1.2h.1v.1h-.1v-.1m13 56.4l11.1-19.3m-48.6-38.5l-.1.8m.4-1.5l-.3.7m.7-1.3l-.5.6m1.1-1.1l-.6.5m1.4-.8l-.7.3m1.4-.4l-.8.1m23.8 0l-.8-.1m1.6.4l-.8-.3m1.4.8l-.6-.5m1.1 1.1l-.5-.6m.8 1.3l-.3-.7m.4 1.5l-.1-.8m-25.9 3.7l.8.1m-1.6-.4l.7.3m-1.3-.7l.6.4m-1-1.1l.5.7m-.8-1.4l.3.7m-.5-1.5l.1.8m28.1 0l.1-.8m-.4 1.5l.3-.7m-.8 1.4l.5-.7m-1.1 1.1l.6-.4m-1.4.7l.8-.3m-1.6.4l.8-.1m-22.5-2.3h.1m-.3 0l.2.1m-.3-.3l.1.1m-.2-.3l.1.2m-.2-.4l.1.2m45.7 37.4h.1v.1h-.1v-.1m-16.4 16.4l11.1-19.3m0 0h.1v.1h-.1v-.1m-7.6 20.5l10.5-18.2m-.1 0c.1-.1.1-.2.1-.3 0-.2-.1-.4-.4-.5m.4.8h.1v.1h-.1v-.1"/><path fill="none" stroke="#000" stroke-linecap="square" stroke-miterlimit="10" stroke-width=".413" d="M56.2 164.2L66.7 146m.8-.2c-.1-.1-.1-.1-.2-.1-.2 0-.4.1-.5.2m-10.4 19c.1.1.2.1.3.1.2 0 .4-.1.5-.4m9.5-18.6h.1v.1h-.1v-.1m-12.9 17.5c-.2.5-.4 1-.4 1.5 0 1.1.5 2 1.4 2.6M69 143.1c-.5-.2-1-.4-1.5-.4-1.1 0-2 .5-2.6 1.5m-10 23.4c.5.2 1 .4 1.5.4 1.1 0 2-.6 2.6-1.5m11-19.3c.2-.4.4-1 .4-1.4 0-1.1-.6-2.1-1.5-2.6m-12.7 21c-.1.1-.1.2-.1.3 0 .2.1.4.2.5M88.4 61.1h9.3m0 0h.1v.1h-.1v-.1m-4.6 3.5h4.6m0 0h.1v.1h-.1v-.1m-4.6 0v-4.7m0 0h.1v.1h-.1v-.1m0 0h4.6m0 0h.1v.1h-.1v-.1m-4.1 0v-4.4m0 0h.1v.1h-.1v-.1m0 0l.6-.5m0 0h.1v.1h-.1V55m0 0h2.4m0 0h.1v.1h-.1V55m.6 4.9v-4.4m0 0h.1v.1h-.1v-.1m-.6-.5l.6.5"/><path fill="none" stroke="#000" stroke-linecap="square" stroke-miterlimit="10" stroke-width=".413" d="M97.2 55.5h.1v.1h-.1v-.1m.5 11.7v-7.3M96 57.4c-.1-.3-.3-.5-.6-.5s-.5.2-.5.5.2.6.5.6.6-.3.6-.6m1.7 2.5h.1v.1h-.1v-.1m63.7 47.7h1.1M93.4 45.2l-5-.2m10.1.8l-5-.5m9.9 1.5l-4.9-1m9.8 2.3l-4.9-1.3m6.1 1.9l-1.2-.5m2.2 1.2l-1-.8m1.8 1.7l-.8-.9m1.3 1.9l-.5-1m.7 2l-.2-1m.1 2l.1-1m-.6 1.8l.4-.8m-1.1 1.5l.8-.7m-1.8 1.2l1-.4m-2.1.6l1.1-.2m-2.4.1l1.3.1m-2.6-.4l1.3.3m27.9 27.1c-2.5-4.3-5.6-8.3-9.2-11.8m3.4 15.2c-2.2-3.8-4.9-7.3-8-10.4m1 14.4c-1.6-2.7-3.4-5.2-5.6-7.4m10.5 4.6c-1.7-3.1-3.9-5.9-6.4-8.5m-4.8 2.8l.8 1.1m-1.4-2.2l.6 1.1m-.8-2.1l.2 1.1m0-2.1l-.1 1m.5-1.7l-.5.7m1.3-1.2l-.8.5m1.8-.6l-1 .1m2.1.1l-1.1-.2m2.3.8l-1.1-.5m2.1 1.3l-1-.8m.5-3.4l1 1.1m-1.9-3.5l.3 1.2.6 1.2m-.7-3.5l-.2 1.1m.7-2l-.5.8m1.4-1.4l-.9.6m2.1-.8l-1.1.2m2.3 0l-1.2-.2m2.5.7l-1.3-.5m2.4 1.3l-1.1-.8m19.3 7.4c-3.3-5.8-7.6-11.1-12.6-15.7m6.3 19.3c-3-5.2-6.7-9.8-11.2-13.9m-.8-.8l.9 1m-1.6-2.1l.7 1.1m-1.1-2.2l.4 1.1m-.4-2.2l.1 1.1m0-2.1l-.2 1m.8-1.8l-.5.8m1.3-1.4l-.8.5m1.7-.8l-1 .4m2.1-.4h-1.1m2.2.2l-1.1-.2m2.3.8l-1.2-.5m2.3 1.2l-1.1-.8M91.4 72.2l-3-.1m5.9.4l-2.9-.4m5.8 1l-2.9-.5m5.7 1.3l-2.9-.8m5.7 1.8l-2.8-1m5.4 2.2l-2.6-1.3m5.2 2.8l-2.6-1.4m5.1 3.1l-2.5-1.7m4.8 3.5l-2.3-1.8m4.5 3.8l-2.2-2m4.2 4.2l-2-2.2m3.8 4.4l-1.8-2.3m3.4 4.8l-1.7-2.5m3.2 5.1l-1.4-2.6m2.6 5.3l-1.2-2.7m2.2 5.4l-1-2.7m1.8 5.6l-.8-2.9m1.4 5.7l-.5-2.9m.8 5.9l-.4-2.9m.6 5.8l-.1-2.9M93.4 40.4l-5-.2m9.9.7l-4.9-.5m9.8 1.4l-4.9-.9M108 43l-4.8-1.2m9.4 2.8L108 43m9.2 3.5l-4.6-1.9m9 4.1l-4.4-2.2m8.8 4.7l-4.3-2.5m8.3 5.4l-4-2.8m7.8 5.9l-3.8-3.1m7.5 6.4l-3.7-3.4m7 7.1l-3.4-3.7M144 68l-3.1-3.8m5.9 7.9l-2.8-4m5.3 8.3l-2.5-4.3m4.7 8.7l-2.2-4.4m4.1 9l-1.9-4.6m3.5 9.3l-1.6-4.7m2.8 9.5l-1.2-4.8m2.1 9.6l-.9-4.9m1.4 9.8l-.5-4.9m.7 9.9l-.1-5m4.9 3h.1v.1h-.1v-.1M90.4 36.5v-1.1m72.6 72.4l-.5-.1m1 .2l-.5-.2m.9.5l-.4-.3m.7.8l-.4-.4m.6.8l-.2-.5m.3 1l-.1-.5m-4.8 0l-.1.5m.2-.9l-.2.5m.5-1l-.3.4m.8-.7l-.4.3m.8-.4l-.5.2m1-.4l-.5.1M90.4 35.5h.1v.1h-.1v-.1m51 23.8l.8-.8M88.9 33.6l-.5-.1m1 .3l-.5-.2m.9.5l-.4-.3m.7.7l-.3-.4m.5.9l-.2-.5m.3 1l-.1-.5m0 2.1l.1-.5m-.3 1l.2-.5m-.5.9l.3-.4m-.7.7l.4-.3m-.9.5l.5-.2m-1 .2l.5-.1m53.3 20.2h.1v.1h-.1v-.1m-3.5-2l.8-.8m2.6 2.7c.4-.4.6-.8.6-1.4 0-.5-.2-1-.6-1.3m-3.5 3.5c.4.4.8.6 1.4.6.5 0 1-.2 1.3-.6m-1.8-3.5h.1v.1h-.1v-.1m21.9 55.7h1.1m-36.7 1.1l.1-2.9m-.4 5.8l.4-2.9m-1 5.8l.5-2.9m-1.3 5.7l.8-2.8m-1.8 5.6l1-2.8m-2.2 5.5l1.2-2.6m-2.7 5.1l1.4-2.6m-3 5.1l1.7-2.5M117 134l1.8-2.3m-3.8 4.5l2-2.2m-4.2 4.2l2.2-2m-4.5 3.8l2.3-1.8m-4.8 3.4l2.5-1.6m-5.1 3.1l2.6-1.5m-5.2 2.7l2.6-1.2m-5.4 2.2l2.8-1m-5.6 1.9l2.9-.8m-5.8 1.3l2.9-.5m-5.8.9l2.9-.4m-5.9.5l3-.1m66.2-32.6l.1-4.9m-.6 9.9l.5-5m-1.4 9.9l.9-4.9m-2.1 9.7l1.2-4.8m-2.8 9.5l1.6-4.7m-3.5 9.3l1.9-4.6m-4.1 9l2.2-4.4m-4.7 8.6l2.5-4.3m-5.3 8.4l2.8-4.1m-6 8l3.1-3.9m-6.4 7.5l3.4-3.6m-7.1 7l3.7-3.4m-7.5 6.5l3.8-3.1M126 168l4-2.8m-8.4 5.3l4.3-2.5m-8.7 4.7l4.4-2.2m-9 4.2l4.6-1.9m-9.2 3.4l4.7-1.6m-9.5 2.8l4.8-1.2m-9.7 2.1l4.9-.9m-9.8 1.5l4.9-.5m-9.9.6l5-.2m48.7-123c-.4-.4-.8-.5-1.3-.5s-1 .2-1.4.5m-.8.8c-.4.4-.5.8-.5 1.4 0 .5.2 1 .5 1.3m24 52.2h.1v.1h-.1v-.1m-72.2 72.3v-1.1m74-72.5l.1-.5m-.3.9l.2-.4m-.5.8l.4-.4m-.8.7l.4-.3m-.9.5l.5-.2m-.9.2l.5-.1m-2.2.1l.5.1m-.9-.3l.5.2m-1-.5l.4.3m-.7-.7l.3.4m-.4-.8l.2.4m-.4-1l.1.5m-69.1 72.5h.1v.1h-.1v-.1m51-22.7l.8.8m-51.9 23.6l.1-.5m-.3.9l.2-.5m-.5 1l.3-.4m-.7.7l.4-.3m-.9.4l.5-.2m-1 .3l.5-.1m0-4.8l-.5-.1m1 .3l-.5-.2m.9.5l-.4-.3m.7.7l-.3-.4m.5.9l-.2-.5m.3.9l-.1-.5m51.9-21.4h.1v.1h-.1v-.1"/><path fill="none" stroke="#000" stroke-linecap="square" stroke-miterlimit="10" stroke-width=".413" d="M138.7 162.6l.8.8m2.6-.1c.4-.4.6-.8.6-1.3s-.2-1-.6-1.4m-.8-.8c-.4-.4-.8-.5-1.3-.5s-1 .2-1.4.5m.9 3.6h.1v.1h-.1v-.1"/><path fill="none" stroke="#000" stroke-linecap="square" stroke-miterlimit="10" stroke-width=".413" d="M104.6 65.9l2-3.5m-2.5 4.3l.5-.7m-1.3 1.2l.8-.5m-1.8.9l1-.4m-2.1.5l1.1-.2m-2.3.2l1.2.1m-2.4-.3l1.1.2m5.2-9.4l-1-.5M106 59l-.9-.7m1.5 1.5l-.6-.8m.9 1.7l-.3-.8m.3 1.7v-.9m-.3 1.7l.3-.8M91 66.3l-2.6-.1m5.3.3l-2.7-.2m5.3.7l-2.6-.4m5.1.9l-2.5-.5m43.1 96.3c.4.4.8.6 1.4.6.5 0 1-.2 1.3-.6m-3.5-3.5c-.4.4-.5.8-.5 1.4 0 .5.2 1 .5 1.3m-32-100.1h.1v.1h-.1v-.1m-4.2 87.5l-.1-.6m-.2 1.2l.2-.7m-.7 1.4l.5-.7m-1.2 1.3l.7-.6m-1.7 1.1l1-.5m-2.1 1l1.1-.4m6.9 5.2l-.1-.7m-.1 1.5l.2-.8m-.8 1.6l.5-.8m-1.2 1.5l.8-.7m-1.9 1.4l1-.7m-2.1 1.1l1.1-.5m7.7 6.1l-.1-.8m-.1 1.7l.2-.9m-.7 1.8l.5-.9m-1.3 1.7l.8-.8m-1.9 1.6l1-.8m-2.2 1.3l1.3-.5m-13.1-16.7l2.6-.5m-5.2.9l2.6-.4m-5.3.6l2.6-.2m-5.2.3l2.6-.1m8.5 8l3.6-.9m-7.3 1.5l3.7-.6m-7.4 1.1l3.7-.4m-7.4.5l3.7-.1m11.2 8.8l4.8-1.3m-9.7 2.4l4.9-1m-9.9 1.5l4.9-.5m-9.9.7l5-.2m6.2-10.9l3.7-.9m-7.4 1.6l3.7-.7m-7.4 1.1l3.7-.4m-7.5.5l3.8-.1m6-7.5l3.2-.8m-6.4 1.4l3.2-.6m-6.5.9l3.3-.3m-6.6.4l3.3-.1m3.7-8.7l2.3-.4m-4.6.8l2.3-.4m-4.7.6l2.3-.2m-4.6.3l2.3-.1m5.7 5l2.6-.6m-5.3 1l2.6-.4m-5.2.6l2.6-.2m-5.3.3l2.7-.1m7.9-6.8l-1.3.2m2.5-.2l-1.2-.1m2.2.5l-1.1-.4m1.9 1l-.8-.5m1.2 1.3l-.4-.8m.4 1.7v-.8m-.4 1.7l.4-1m-1.2 1.9l.8-.8m-1.8 1.4l1-.7m-2.2 1.2l1.3-.5m2.6 2.2l-1.4.3m2.7-.2l-1.3-.1m2.5.5l-1.2-.4m2.1 1l-.9-.7m1.4 1.7l-.5-1m.5 2l-.1-1m-.2 2.1l.4-1.1m-2.4 2.9l1.1-.8.8-1m-3.1 2.4l1.3-.6m-1.2 11.4l4.9-1.4m-9.8 2.4l4.9-1m-10 1.6l5-.6m-10 .8l5-.2m8.3-8.7l4.3-1.2m-8.7 2.1l4.4-.9m-8.8 1.4l4.4-.5m-8.9.7l4.5-.1m14.4-3l-1.3.3m2.6-.4l-1.3.1m2.4.2l-1.1-.2m2.1.7l-1-.5m1.7 1.1l-.8-.7m1.3 1.6l-.4-.8m.5 1.7l-.1-1m-.1 2l.2-1m-.7 2l.5-1m-1.3 1.9l.8-.9m-1.8 1.6l1-.7m-2.2 1.3l1.2-.5m10.2-29.7l.8-.7m-1.7 1.3l.9-.5m-1.8.8l.9-.4m-1.8.6l.8-.1m-1.5-.1l.7.1m-1.2-.4l.5.4m8.3 6.9l1-.8m-2 1.3l1.1-.5m-2.2.8l1.1-.3m-2 .4l.9-.1m-1.8-.1l.8.2m-1.3-.7l.5.5m9.5 8.4l1.1-.8m-2.3 1.4l1.2-.6m-2.3.9l1.1-.3m-2.1.3h1m-1.9-.3l.9.3m-1.6-.9l.7.5m-5.6-18.3c2.5-2.5 4.6-5.3 6.3-8.4m-1.2 16.3c3.6-3.5 6.7-7.4 9.1-11.7m-3.4 20.7c5-4.5 9.2-9.7 12.5-15.5m-17.7 6.9c3.6-3.5 6.7-7.5 9.2-11.8m-13.9 7c3.1-3.1 5.9-6.5 8-10.4m-12.5 3.5c2.2-2.3 4-4.8 5.6-7.5m-1.5 11.4c2.5-2.6 4.6-5.5 6.4-8.5m-7.3 9.4l1-.8m-2.2 1.3l1.1-.5m-2.2.8l1.1-.2m-2.1 0l1 .1m-1.8-.5l.8.5m-1.2-1.3l.5.7m-.7-1.7l.1 1m.1-2l-.2 1m.8-2.1l-.6 1.1m1.4-2.2l-.8 1m8.8 11.6l1.1-.9m-2.4 1.5l1.3-.5m-2.5.6l1.2-.1m-2.4-.1l1.1.2m-2-.8l.9.6m-1.4-1.5l.5.9m-.4-3.2l-.3 1.3.2 1.1m.7-3.6l-.6 1.2m1.6-2.3l-1 1.1m11.1 12.6c5-4.6 9.3-9.8 12.6-15.6M126.7 152c4.4-4 8.2-8.7 11.2-13.8m-7.3 20.1l1.1-.7m-2.3 1.2l1.2-.5m-2.3.8l1.1-.2m-2.2.2h1.1m-2.8-1l.8.6 1 .4m-2.4-1.8l.5.8m-.6-1.8l.2 1m-.2-2.1l-.1 1.1m.5-2.2l-.4 1.1m1.1-2.1l-.7 1m1.6-2l-.9 1m4.3-35.4l-.5-.2m1 .7l-.5-.5m.8 1.3l-.3-.8m.5 1.7l-.2-1m.2 2.1v-1.1m-.3 2.3l.2-1.1m8-3.4l-.7-.2m1.3.8l-.6-.6m1 1.5l-.4-.9m.7 1.9l-.2-1m.2 2.2l-.1-1.2m-.1 2.4l.2-1.2m9.1-3.7l-.8-.3m1.5.9l-.7-.6m1.2 1.5l-.5-.9m.8 2.1l-.3-1.1m.4 2.4l-.1-1.3m-.1 2.7l.2-1.4m-24.4 10c1.8-3 3.2-6.2 4.1-9.7m3.8 14.3c2.5-4.3 4.4-8.9 5.6-13.7m3.5 18.9c3.3-5.8 5.8-12 7.1-18.5m-15.7 13.6c2.5-4.3 4.4-9 5.6-13.9m-11.3 10.6c2.2-3.8 3.9-7.9 5-12.2m-12 8.1c1.6-2.6 2.8-5.5 3.7-8.5m1.2 11.4c1.8-3.1 3.2-6.4 4.2-9.8m-4.9-2.8l-.5 1.2m1.2-2.2l-.7 1m1.5-1.8l-.8.8m1.7-1.1l-.9.4m1.8-.3l-.9-.1m1.7.5l-.8-.4m1.4 1.2l-.6-.8m1 1.9l-.4-1.1m.4 2.3l-.1-1.3m-.1 2.6l.2-1.3m3.2-1.2l-.4 1.4m1.2-2.5l-.8 1.1m1.7-2l-.9.8m2-1.2l-1.1.4m2.1-.3l-1-.1m1.9.5l-.9-.4m1.7 1.3l-.8-.9m1.2 2l-.5-1.1m.7 2.5l-.2-1.4m0 2.9l.2-1.4m3.2 20.4c3.4-5.9 5.8-12.2 7.2-18.8m-13.6 15.2c3-5.2 5.2-10.8 6.4-16.6m.5-1.2l-.4 1.3m1-2.4l-.6 1.1m1.4-2l-.8.9m1.7-1.6l-.9.7m1.9-1l-1 .3m1.9-.2l-1-.1m1.9.4l-.9-.4m1.7 1.1l-.8-.7m1.4 1.7l-.5-1m.9 3.4l-.1-1.3-.4-1.1m.5 3.7l.1-1.3m-20.5-23.7l-.2-1.1m.2 2.2v-1.1m-.2 2.1l.2-1m-.5 1.7l.3-.8m-.8 1.4l.5-.5m-1 .7l.5-.2m10.2-3.7l-.2-1.3m.2 2.5l.1-1.2m-.4 2.2l.2-1.1m-.6 2l.4-.8m-1 1.3l.6-.5m-1.3.8l.7-.3m12-3.9l-.2-1.4m.1 2.7l.1-1.3m-.4 2.4l.3-1.1m-.8 2l.5-1m-1.2 1.6l.7-.6m-1.5.9l.8-.3M130.9 97c-1-3.4-2.3-6.6-4.1-9.7m13.4 9.3c-1.2-4.9-3.1-9.5-5.6-13.7m16.3 13.3c-1.4-6.5-3.8-12.8-7.1-18.6m-3 18.8c-1.2-4.9-3.1-9.5-5.6-13.9m-.8 15.5c-1.1-4.3-2.8-8.4-5-12.2m-3.3 12.7c-.9-3-2.1-5.9-3.7-8.6m9.1 6.9c-1-3.4-2.4-6.7-4.2-9.8m4.4 11.2l-.2-1.3m.2 2.6l.1-1.3m-.5 2.4l.4-1.1m-1 1.8l.6-.8m-1.4 1.3l.8-.4m-1.7.4l.9-.1m-1.8-.2l.9.4m-1.7-1.2l.8.7m-1.5-1.7l.7 1m-1.2-2.2l.5 1.2m14.4-1.8l-.2-1.4m0 2.8l.2-1.4m-.6 2.5l.5-1.1m-1.3 2l.8-.9m-1.7 1.4l.9-.4m-1.9.4l1-.1m-2.1-.3l1.1.4m-2-1.2l.9.8m-1.7-2l.8 1.1m-1.3-2.4l.5 1.3m16.5-3.4c-1.4-6.6-3.8-12.9-7.2-18.7m.1 20.2c-1.3-5.8-3.4-11.4-6.4-16.6m13.7 16.5l-.1-1.3m.1 2.5l.1-1.3m-.5 2.5l.4-1.1m-1 2l.5-1m-1.3 1.7l.8-.7m-1.7 1.1l.9-.4m-1.8.4l1-.1m-2-.2l1 .3m-1.9-.9l.9.7m-1.7-1.6l.8.9m-1.4-2l.6 1.1m-.9-2.4l.4 1.3m-28.5-21.5l-.5.4m1.2-.5l-.7.1m2.5.3l-.9-.3-.8-.1m2.6 1l-.9-.6m1.7 1.3l-.8-.7m1-8.5l-.5.4m1.4-.7l-.8.2m1.7-.2h-.9m2 .4l-1.1-.4m2.1.9l-1.1-.5m2.1 1.3l-1-.8m1.4-9.7l-.7.6m1.6-.8l-.9.2m1.9-.2h-1m2.1.3l-1.1-.3m2.3.9l-1.2-.6m2.3 1.4l-1.1-.8m-3.5 26c-1.7-3.1-3.8-5.9-6.3-8.4m14.2 3.9c-2.5-4.3-5.5-8.2-9.1-11.6m18.2 6.3c-3.3-5.8-7.5-11-12.5-15.5M94.2 32l-5.8-.2m11.6.9l-5.8-.7m11.5 1.7l-5.7-1m11.4 2.6l-5.6-1.6m11 3.5l-5.5-1.9m10.9 4.2l-5.3-2.3m10.4 5l-5.1-2.7m10 5.8l-4.9-3.1m9.6 6.6l-4.7-3.5m9.1 7.3l-4.4-3.8m8.6 7.9l-4.1-4.1m7.8 8.5l-3.8-4.4m7.3 9.1l-3.5-4.7m6.6 9.6l-3.1-4.9m5.8 10l-2.7-5.1m5 10.5l-2.3-5.3m4.2 10.7l-1.9-5.5m3.4 11.2l-1.5-5.6m2.6 11.3l-1.1-5.7m1.8 11.5l-.7-5.8m.9 11.6l-.2-5.8m0 11.6l.2-5.8m-.9 11.6l.7-5.8m-1.8 11.5l1.1-5.7m-2.6 11.3l1.5-5.6m-3.4 11.2l1.9-5.5m-4.2 10.8l2.3-5.3m-5 10.5l2.7-5.2m-5.8 10.1l3.1-4.9m-6.6 9.5l3.5-4.6m-7.2 9l3.8-4.4m-8 8.5l4.1-4.1m-8.5 8l4.4-3.8m-9.1 7.2l4.7-3.4m-9.6 6.5l4.9-3.1m-10 5.8l5.1-2.7m-10.5 5l5.3-2.3m-10.7 4.3l5.5-1.9m-11.2 3.4l5.6-1.5m-11.3 2.5l5.7-1.1m-11.5 1.8l5.8-.7m-11.6.9l5.8-.2M92.8 68.6c.2.3.5.5 1 .5.4 0 .7-.2.9-.5m.1.3c-.1-.4-.5-.7-1-.7s-1 .3-1 .7c0 .4.4.7 1 .7.5.1 1-.3 1-.7M91 56.2l-2.6-.1m5.2.3l-2.6-.2m0-.6l-2.6-.1m5.2.3l-2.6-.2m12 2.6c-1.9-.6-3.9-1-5.9-1.3m6.9.9c-2.3-.7-4.6-1.2-6.8-1.6m-4.3-3.7l-4.5-.2m8.9.7l-4.4-.5m8.8 1.4l-4.4-.9m8.7 2.1l-4.3-1.3m2.5 4.9l-1.1-.5m2.2 1.1l-1-.7m1.7 1.5l-.8-.7m1.4 1.5l-.5-.8m.7 1.5l-.2-.7m0 1.5l.1-.8m2.6-12.3l-1.3-.6m2.4 1.3l-1-.7m1.8 1.6l-.8-.8m1.3 1.7l-.5-.9m.7 1.7l-.2-.8m.1 1.7l.1-.8m-18.5-6.9l-5-.2m10 .8l-4.9-.6m9.8 1.5l-4.9-1m9.7 2.4l-4.8-1.4m8.6 27.6L123 55.7m0 0h.1v.1h-.1v-.1m-16.3 16.2l11.1-19.2m0 0h.1v.1h-.1v-.1m-7.7 20.5L120.6 55m-11.4 18.4c.1.1.2.1.3.1.2 0 .4-.1.5-.3M120.6 55h.1v.1h-.1V55M109 72.7l10.6-18.2M109 72.6c-.1.1-.1.2-.1.3 0 .2.1.4.2.5m11.4-18.5c.1-.1.1-.1.1-.2 0-.2-.1-.4-.3-.5m-.7.2h.1v.1h-.1v-.1m10.6 58.2h22.2m-30.6-61.1c-.4-.2-1-.4-1.4-.4-1.1 0-2.1.5-2.6 1.4m-11.2 19.4c-.2.5-.4 1-.4 1.5 0 1.1.5 2 1.4 2.6M123 55.6c.2-.5.4-1 .4-1.5 0-1.1-.6-2-1.6-2.6M107.7 76c.5.2 1 .4 1.5.4 1.1 0 2-.6 2.6-1.5m8.5-20.7c-.1-.1-.2-.1-.3-.1-.2 0-.4.1-.5.2m32.9 58.3h.1v.1h-.1v-.1m-22.2-6h22.2m0 0h.1v.1h-.1v-.1m-21.6 2.4h21.1m-21.7.4v.2m0-.3l-.1.1m.2-.2l-.1.1m.3-.2l-.1.1m.2-.2l-.1.1m.3-.1h-.2m21.2 0h.1v.1h-.1v-.1m-21.2 1.2h21.2m-21.3 0l.1.1m-.4-.4l.2.2m-.2-.3l.1.1m-.1-.3v.2m21.7-.8h-.1m.3.1l-.1-.1m.2.2l-.2-.1m.4.3l-.1-.2m.1.4v-.2m-.6.8h.1v.1h-.1v-.1m-45.1 37l11.1 19.3m35.3-59.8l-.8-.1m1.6.4l-.8-.3m1.4.8l-.6-.5m1.1 1.1l-.5-.6m.8 1.3l-.3-.7m.4 1.5l-.1-.8m-28 0l-.1.8m.4-1.5l-.3.7m.8-1.3l-.5.6m1.1-1.1l-.6.5m1.3-.8l-.7.3m1.5-.4l-.8.1m25.9 3.7l.1-.8m-.4 1.5l.3-.7m-.8 1.4l.5-.7m-1.1 1.1l.6-.4m-1.4.7l.8-.3m-1.5.4l.8-.1m-23.8 0l.8.1m-1.5-.4l.7.3m-1.3-.7l.6.4m-1.1-1.1l.5.7m-.8-1.4l.3.7m-.4-1.5l.1.8m25.1-.6v-.2m-.2.4l.1-.2m-.2.4l.2-.1m-.4.1l.1-.1m-.2.1h.1m-34.1 56.4h.1v.1h-.1v-.1m-5.9-22.3l11.1 19.3m0 0h.1v.1h-.1v-.1m-14-17l10.6 18.2m-10.4-19c-.2.1-.2.3-.2.5 0 .1 0 .2.1.2m10.5 18.3h.1v.1h-.1v-.1"/><path fill="none" stroke="#000" stroke-linecap="square" stroke-miterlimit="10" stroke-width=".413" d="M110.1 146l10.5 18.2M110 146c-.1-.2-.3-.2-.5-.2-.1 0-.2 0-.3.1m10.3 18.9c.1.2.3.3.5.3.1 0 .2-.1.3-.1m.3-.8h.1v.1h-.1v-.1m1.2 3.4c1-.5 1.6-1.5 1.6-2.6 0-.5-.2-1-.4-1.5m-11.2-19.3c-.5-1-1.5-1.5-2.6-1.5-.5 0-1 .1-1.5.4m10 23.4c.5.9 1.6 1.5 2.6 1.5.5 0 1-.2 1.5-.4m-14.1-24.5c-.9.5-1.4 1.6-1.4 2.6 0 .5.1 1 .4 1.4m13.6 17.8c.2-.1.3-.3.3-.5 0-.1-.1-.2-.1-.3m-51.4 86.3h.9m47.8-140.8c-.1-16.3-13.2-29.4-29.4-29.4-16.3 0-29.4 13.1-29.4 29.4 0 16.3 13.1 29.5 29.4 29.5 16.2-.1 29.4-13.3 29.4-29.5m1.2 0c-.1-17-13.7-30.6-30.6-30.6-16.9 0-30.6 13.7-30.6 30.6 0 16.9 13.7 30.7 30.6 30.7 16.9-.1 30.6-13.8 30.6-30.7M70 250.4h.1v.1H70v-.1m-7-2.7l.7 1.2m4 .6h-.2m.3.1l-.1-.1m.2.2l-.1-.1m.3.2l-.1-.1m-3.6-.3l.4.1m-.7-.1l.3.1m-.5-.3l.2.2m-.4-.5l.2.3m4.9 1.2h.3m-.6-.2l.3.2m-.6-.3l.2.1m-.3-.4l.2.3m-4.6-1.2h.1v.1h-.1v-.1M12 211h.4m5.3.1l-.4-.1m.7.2l-.3-.1m.7.3l-.4-.2m.9.7l-.5-.5m.6.8l-.1-.3M45.5 242c-6.2-7.6-13.3-14.5-20.9-20.6m-5.6-9.3c1.3 3.4 3.2 6.5 5.6 9.2m24.9 24.6c-1.1-1.4-2.3-2.7-3.8-3.7m6.2 5.1l.5.1m-1.1-.2l.5.1m-1-.3l.5.2m-1-.6l.5.4m-.9-.7l.4.3m-.8-.7l.4.4m12.8 1.1h-.2m.3.1l-.1-.1m.2.2l-.1-.1m.2.2l-.1-.1M12.4 211h.1v.1h-.1v-.1m-1.8-2.7l.6 2.1m0 0h.1v.1h-.1v-.1m41.1 37h36.1M11.8 211h.2m-.3 0l.2.1m-.4-.3l.2.1m-.3-.2l.1.1m-.3-.3l.1.2m-.1-.3l.1.2m77.1 36.8h.1v.1h-.1v-.1m-23.6 2.1h23.6m0 0h.1v.1h-.1v-.1m-77.8-41.2h77.8m0 0h.1v.1h-.1v-.1M12 211h76.4m0 0h.1v.1h-.1v-.1m-63.1 6.7h19.8m0 0h.1v.1h-.1v-.1m23.6 0h19.7m-18.8 6.4l1.3.1m-2.7-.5l1.3.4m-2.5-.8l1.2.5m-2.2-1.3l1 .7m-1.8-1.4l.8.8m-1.2-1.7l.4.8m-.5-1.6l.1.8m.1-1.6l-.2.8m.8-1.5l-.5.7m1.3-1.2l-.8.5m2-.9l-1.1.4m2.3-.4l-1.2.1m20.9-.1h.1v.1h-.1v-.1m-17.6 6.5h17.6m0 0h.1v.1h-.1v-.1m-15.6 3.5h15.6m0 0h.1v.1h-.1v-.1M78 241.4h10.4m0 0h.1v.1h-.1v-.1m-18.2-8.3l2 4.6m-2.5-6l.4 1.4m-.4-2.7l.1 1.3m.2-2.4l-.3 1.1m.9-2l-.6.8m1.6-1.3l-1 .5m2.2-.7l-1.2.2m5.3 13.4l1.1.1m-2.3-.5l1.2.4m-2.3-1l1.1.6m-2.1-1.3l1 .7m-1.8-1.6l.8.9m-1.4-1.9l.6 1m-.6-1h.1v.1h-.1v-.1m-26.9-.6h10.6M52 221.8l-.5-.8m.7 1.5l-.2-.8m.1 1.6l.1-.7m-.5 1.1l.4-.5m-1.1.9l.7-.4m-1.6.5l.9-.1m-4.8-6.4l-1.1-.1m2.3.5l-1.2-.4m2.4.9l-1.2-.5m2.4 1.2l-1.1-.7m2.1 1.5l-1-.8m1.7 1.6l-.7-.8m6.3 11.9l-.5-.9m.7 1.7l-.2-.8m.1 1.5l.1-.7m-.5 1.3l.4-.5m-1 .8l.6-.4m-1.4.5l.8-.1m-4.4-6.6l-1-.1m2.1.5l-1.1-.4m2.2.9l-1.1-.5m2.1 1.2l-1-.7m1.9 1.5l-.9-.8m1.6 1.7l-.7-.9m5.5 11.2l-.4-.9m.6 1.8l-.2-.8m.1 1.4l.1-.7m-.4 1.3l.4-.6m-.9.9l.5-.3m-1.3.5l.8-.1m-4-6.7l-.8-.1m1.8.5l-1-.4m1.9.9l-1-.5m1.9 1.2l-.9-.7m1.7 1.5l-.8-.8m1.5 1.7l-.7-.9m-4.4-2.5h.1v.1h-.1v-.1m-5.2 6.9h9.2m0 0h.1v.1h-.1v-.1M36 227.7h14.8m0 0h.1v.1h-.1v-.1m-8.4 6.8h13m0 0h.1v.1h-.1v-.1m-23-10.3h17.7m0 0h.1v.1h-.1v-.1m18.6-6.3h19.7m0 0h.1v.1h-.1v-.1M72.8 228h15.6m0 0h.1v.1h-.1v-.1m-9.6 6.8h9.6m-42.3 5.7c-5.9-7.1-12.3-13.9-19-20.2m23.1 23.6l.5.1m-1.9-1.1l.7.6.7.4m-2.2-1.6l.8.7m-1.6-1.6l.8.8m-1.6-1.7l.8.9m-1.5-1.7l.7.8m-1.1-1.5l.5.7m-.9-1.4l.4.7m-.5-1.2l.1.5m.1-.8l-.1.3m.4-.4l-.3.1m.6 2.1l.8.9m-1.3-1.6l.5.8m-.8-1.6l.3.7m-.4-1.2l.1.5m.1-.9l-.2.4m.6-.5l-.4.1m-2.9-2.8l.4.1m-1.1-.4l.7.3m-1.4-.8l.7.5m-1.6-1.2l.8.7m-1.6-1.5l.8.8m-1.6-1.7l.8.9m-1.6-1.7l.8.8m-1.4-1.6l.6.8m-1.2-1.4l.5.7m-.7-1.3l.2.5m-.3-.8l.1.3m.1-.4l-.1.1m1.4 2.2l.8.9m-1.5-1.7l.7.8m-1.3-1.6l.5.8m-.7-1.3l.2.5m-.3-.9l.1.4m.2-.5l-.2.1m-8.8-7.7l.9.8m-1.7-1.6l.8.8m-1.4-1.5l.6.7m-.9-1.2l.4.5m-.5-.9l.1.4m0-.4l-.1.1m1.9 2.3l.8.8m-1.5-1.5l.7.7m-1.3-1.3l.5.6m-.9-1.1l.4.5m-.5-.8l.1.3m-.1-.4v.1m6.7 6.1l.4.1m-1.1-.4l.7.3m-1.4-.8l.8.5m-1.7-1.2l.8.7m-1.7-1.5l1 .8m-1.9-1.7l.8.8m55.1 22c-.1-.4-.5-.5-.9-.5s-.8.2-.9.5m1.9-.1c0-.4-.4-.7-1-.7-.5 0-.9.3-.9.7 0 .4.4.7.9.7.6 0 1-.3 1-.7m-13.7-14.5l-.5.8m1.2-1.4l-.7.6m1.6-1l-.9.4m1.9-.5l-1 .1m-6-9.6l-.7.4m1.6-.7l-.8.3m1.7-.5l-1 .2m2.1-.3l-1 .1m20.7 16.8h.1v.1h-.1v-.1m-9.6 4.2h9.6m0 0h.1v.1h-.1v-.1m-9.6-4.8H83m0 0h.1v.1H83v-.1m0 4.8v-4.8"/><path fill="none" stroke="#000" stroke-linecap="square" stroke-miterlimit="10" stroke-width=".413" d="M83 234.2h.1v.1H83v-.1m-3.6-.6h9m0 0h.1v.1h-.1v-.1m-9.6 7.8v-7.2m0 0h.1v.1h-.1v-.1M12 208.3v-.9M78.9 234l-.1.2m.2-.4l-.1.2m.2-.4l-.1.1m.3-.1l-.2.1m.3-.1h-.1M12 207.4h.1v.1H12v-.1m.6-.6h75.8m0 0h.1v.1h-.1v-.1m-76.3.5l-.1.1m.1-.3v.2m.1-.3l-.1.1m.2-.2l-.1.1m.3-.1l-.2.1m.3-.2l-.1.1m54.8 34.8l.2.4m-.3-.8l.1.4m-.3-.7l.2.4m-.3-.9l.1.5m-.3-.8l.2.3m-.4-.7l.2.4m-.6-1.1l.4.7m-.5-1.1l.1.4m-.3-.7l.2.4m-.3-.8l.2.4m-.4-.8l.1.4m-.3-.8l.2.4m-.3-.7l.1.4m-.3-.7l.2.3m-.4-.7l.2.4m-.3-.7l.1.4m-.3-.9l.2.4m-1.1-2.2l.9 1.8m-1-2.1l.1.4m-.3-.8l.2.4m-.4-.7l.1.4m-.3-.8l.2.4m-.4-.8l.2.4m-.3-.7l.1.4m-.3-.8l.2.4m-1-1.9l.7 1.4m-1-2l.4.6m-.5-.9l.1.4m-.3-.7l.2.3m-.4-.7l.2.4m-.4-.6l.2.2m-.4-.6l.2.4m-.3-.7l.1.3m-.6-1.2l.5.9m-.7-1.3l.2.4m-.3-.7l.1.3m-.4-.6l.2.3m-.3-.6l.1.3m-1-1.8l.9 1.5m-1.1-1.8l.2.4m-.3-.7l.2.3m-.4-.6l.1.3m-.3-.6l.2.3m-.3-.6l.1.3m-.4-.7l.2.4m-.3-.7l.1.3m-.3-.6l.2.3m-.4-.6l.2.3m-.4-.6l.2.4m10.9 21.4h.1v.1h-.1v-.1m.1-1.5l.4.7m-.5-1.1l.1.4m-.3-.7l.2.4m-.4-.7l.2.3m-.4-.7l.2.4m-.3-.7l.1.4m-.3-.8l.2.4m-.4-.7l.2.3m-.3-.7l.1.4m-.4-1.1l.4.7m-.6-1l.1.3m-.4-1l.4.7m-.6-1l.2.3m-.3-.7l.1.4m-.3-.7l.2.3m-.4-.6l.2.4m-.3-.8l.1.4m-.3-.7l.2.3m-.4-.6l.2.4m-.3-.7l.1.3m-.6-1.4l.5 1.1m-.7-1.4l.2.3M63 231l.5 1.1m-.7-1.4l.2.3m-.6-1l.4.7m-.7-1.3l.4.6m-.6-1l.2.4m-.4-.7l.2.3m-.3-.6l.1.3m-.7-1.2l.5.9m-.8-1.5l.3.6m-.6-1.2l.4.6m-.6-.9l.2.4m-.4-.7l.2.2m-.3-.5l.1.3m-1.4-2.4l1.3 2.1m-1.4-2.4l.1.3m-.4-.9l.4.6m-.7-.9l.2.3m-.3-.6l.1.3m-.3-.6l.2.3m-.4-.6l.1.4m-.3-.7l.2.2m-.4-.5l.2.4m10.1 21.1h.2m-.3-.1l.1.1m-.4-.2l.1.1m1-.4l-.1-.2m.1.5v-.4m-.1.5l.1-.1m-.3.2l.2-.1m-.4.1h.2m.2-.8h.1v.1h-.1v-.1m-1.1.1l.1.4m-.3-.7l.2.4m-.4-.8l.1.4m-.2-.8l.2.4m-.8-1.5l.5 1.1m-.6-1.4l.1.4m-.6-1.5l.5 1.1m-.7-1.4l.2.3m-.3-.7l.1.4m-.9-1.8l.7 1.4m-.8-1.8l.1.4m-.3-.7l.2.3m-1.1-2.1l.9 1.8m-1-2.1l.1.4m-.3-.8l.2.4m-.4-.8l.2.4m-.3-.7l.1.4m-.4-.8l.2.4m-.9-1.8l.7 1.4m-.9-1.7l.2.2m-.3-.5l.2.4m-.4-.7l.1.3m-.4-.9l.4.6m-.5-.9l.1.3m-.3-.6l.2.3m-.3-.6l.1.3m-.3-.6l.2.2m-.4-.5l.2.3m-.3-.6l.1.3m-.3-.5l.2.2m-.4-.5l.2.3m-.3-.6l.1.3m-.3-.6l.2.3m-.4-.5l.2.2m-.5-.8l.4.6m-.5-.9l.1.3m-.3-.6l.2.2m-.6-.8l.4.6m-.5-.9l.1.3m-.5-.9l.4.6m-.5-.8l.2.2m-1-1.4l.7 1.2m-.8-1.5l.1.3m.3-1h-.1m.3 0l-.1-.1m.2.1h-.1m.3.3l-.2-.2m-.8.4l.1.2m-.2-.4l.1.2m0-.3l-.1.1m.3-.3l-.2.2m.4-.2h-.2m10.7 21.6h.1v.1h-.1v-.1m2.1-.9l.2.4m-.4-.8l.2.4m-.5-1.1l.4.7m-.6-1l.2.3m-.4-.7l.2.4m-.3-.7l.1.4m-.3-.8l.2.4m-.4-.7l.2.3m-.3-.7l.1.4m-.4-1.1l.4.7m-.6-1l.1.3m-.4-1l.4.7m-.6-1l.2.3m-.3-.7l.1.4m-.3-.7l.2.3m-.4-.6l.2.4m-.3-.8l.1.4m-.3-.7l.2.3m-.4-.6l.2.4m-.3-.7l.1.3m-.6-1.4l.5 1.1m-.7-1.4l.2.3m-.7-1.4l.5 1.1m-.7-1.4l.2.3m-.6-1l.4.7m-.7-1.3l.4.6m-.6-1l.1.4m-.3-.7l.2.3m-.3-.6l.1.3m-.7-1.2l.5.9m-.8-1.5l.3.6m-.6-1.2l.4.6m-.6-.9l.2.4m-.4-.7l.2.2m-.3-.5l.1.3m-1.2-2.1l1.1 1.8m-1.2-2.1l.1.3m-.3-.6l.2.3m-.4-.6l.1.3m-.6-1.2l.5.9m-.7-1.2l.2.3m-.4-.6l.1.4m-.3-.7l.2.2m-.4-.5l.2.4m10.7 20.3h.1v.1h-.1v-.1m-3 .1l.2.4m-.3-.7l.1.4m-.3-.8l.2.4m-.3-.8l.2.4m-1-1.8l.7 1.4m-.8-1.8l.1.4m-.4-1.1l.4.7m-.6-1l.2.3m-.4-.7l.2.4m-.3-.7l.1.4m-.5-1.2l.4.7m-.5-1l.1.4m-.3-.8l.2.4m-.4-.7l.1.3m-1.7-3.5l1.6 3.2m-1.7-3.6l.1.4m-.3-.7l.2.4m-.8-1.5l.5 1.1m-.7-1.4l.2.2m-.3-.5l.1.4m-.4-1l.4.6m-.6-.9l.1.3m-.4-.9l.4.6m-.5-.9l.1.3m-.3-.6l.2.2m-.6-.8l.4.6m-.5-.8l.1.2m-.5-.8l.4.6m-.5-.9l.1.3m-.3-.5l.2.2m-.3-.5l.2.3m-.4-.6l.1.3m-.2-.6l.2.3m-.4-.6l.2.2m-.6-.8l.4.6m-.5-.9l.1.3m-.5-.9l.4.6m-.5-.8l.2.2m-.8-1.1l.5.9m-.6-1.2l.1.3m-.3-.6l.2.3m10.6 20.6h.1v.1h-.1v-.1m2.9-.2l-.1-.4m.1.9v-.4m-.1.7l.1-.4m-.3.8l.2-.4m-.4.6l.2-.2m-.6.4l.4-.2m-.7.2h.3m-.7-.1l.4.1m-.7-.4l.4.2m-.8-.5l.4.3m-.7-.6l.4.4m-.7-.8l.2.4m-11-22l-.1.7m.4-1.2l-.2.4m.6-.6l-.4.2m1-.1l-.6-.1m1.3.4l-.7-.4m1.4 1l-.7-.5m-22.9-2.4l9.2 6.5m0 0h.1v.1h-.1v-.1m4.9 3.5l8.3 5.9m0 0h.1v.1H57v-.1m49.9 16.8h.8m0 0h.1v.1h-.1v-.1m5.4-1.5l.7-1.2m-4.9 2l-.1.1m.2-.2l-.1.1m.3-.2l-.2.1m.3-.1h-.1m3.7-.3l.2-.3m-.4.5l.2-.2m-.5.2l.3-.1m-.6.2l.3-.1m-3.8.7l.1-.3m-.4.4l.3-.1m-.5.3l.2-.2m-.6.2h.4m5.7-2.7h.1v.1h-.1v-.1m50.7-36.7h.4m-6.9.9l-.2.3m.4-.6l-.2.2m.5-.4l-.3.2m.6-.4l-.4.2m.7-.3l-.3.1m.6-.2l-.3.1m-6.9 10.3c-7.7 6.2-14.7 13.1-21 20.6m20.9-20.7c2.5-2.7 4.4-5.8 5.6-9.2m-26.6 30.1c-1.5 1-2.8 2.3-3.8 3.7m-.3.4l.3-.4m-.7.7l.4-.3m-.9.7l.5-.4m-1.1.6l.5-.2m-1 .3l.5-.1m-1 .2l.5-.1m-11.1.3l-.1.1m.2-.2l-.1.1m.3-.2l-.2.1m.3-.1h-.1m50.6-36.4h.1v.1h-.1v-.1m.9-.6l.5-2.1m0 0h.1v.1h-.1v-.1m-77.8 39.1h36.1m41.1-36.9l.1-.2m-.2.4l.1-.2m-.2.3l.1-.1m-.3.3l.2-.1m-.4.1l.2-.1m-.4.1h.2m-40.5 36.4h.1v.1h-.1v-.1m-36.1 2.1h23.7m0 0h.1v.1h-.1v-.1m-23.7-41.2h77.8"/><path fill="none" stroke="#000" stroke-linecap="square" stroke-miterlimit="10" stroke-width=".413" d="M166.2 208.3h.1v.1h-.1v-.1M88.4 211h76.4m0 0h.1v.1h-.1v-.1m-33.1 6.7h19.9m0 0h.1v.1h-.1v-.1m-63.2 0h19.8m3.4 4.1l.4-.8m-1.2 1.5l.8-.8m-1.8 1.6l1-.7m-2.2 1.1l1.2-.5m-2.5.9l1.3-.4m-2.6.5l1.3-.1m2.1-6.4l-1.2-.1m2.3.5l-1.1-.4m1.9.9l-.8-.5m1.4 1.2l-.6-.7m.9 1.5l-.2-.8m0 1.6l.2-.8m-4-2.4h.1v.1h-.1v-.1m-19.8 6.5H106m0 0h.1v.1h-.1v-.1m-17.6 3.5h15.7m0 0h.1v.1h-.1v-.1m-15.7 13.7h10.4m0 0h.1v.1h-.1v-.1m5.8-3.7l2-4.6m-1.3-5.2l-1.2-.2m2.1.7l-1-.5m1.7 1.4l-.7-.8m1 1.9l-.3-1.1m.2 2.4l.1-1.3m-.6 2.7l.5-1.4m-3 7l.5-1m-1.3 1.9l.8-.9m-1.8 1.6l1-.7m-2.1 1.3l1.1-.6m-2.3 1l1.2-.4m-2.4.5l1.1-.1m6.7-8.2h.1v.1h-.1v-.1m14.4 4h10.6m-5.7-13l.9.1m-1.6-.5l.7.4m-1.2-.8l.5.5m-.6-1.3l.1.7m.1-1.4l-.2.8m.7-1.7l-.5.8m1.3-1.6l-.8.8m1.7-1.6l-1 .8m2.2-1.5l-1.1.7m2.3-1.2l-1.2.5m2.4-.9l-1.2.4m2.3-.4l-1.1.1m-10 16.6l.8.1m-1.4-.4l.7.4m-1.1-1l.4.5m-.5-1.2l.1.7m.2-1.5l-.2.8m.7-1.7l-.5.9m1.1-1.8l-.7.9m1.7-1.7l-1 .8m1.9-1.5l-1 .7m2.2-1.2l-1.1.5m2.2-.9l-1.1.4m2-.5l-1 .1m-8.8 16l.7.1m-1.3-.4l.5.3m-.8-.9l.3.6m-.4-1.2l.1.7m.2-1.6l-.2.8m.6-1.7l-.4.9m1-1.8l-.7.9m1.5-1.7l-.7.8m1.6-1.5l-1 .7m2-1.2l-1 .5m1.9-.9l-.9.4m1.8-.5l-.9.1m11.4-.1h.1v.1h-.1v-.1m-14.6 6.9h9.2m0 0h.1v.1h-.1v-.1m-.1-16.3h14.8m0 0h.1v.1h-.1v-.1m-19.3 6.8h13m0 0h.1v.1h-.1v-.1m-7.7-10.3h17.6m0 0h.1v.1h-.1v-.1m-56-6.3h19.8m0 0h.1v.1h-.1v-.1M88.4 228h15.7m0 0h.1v.1h-.1v-.1m45.6-7.6c-6.7 6.2-13.1 13-19 20.1m-1 .9l.8-.9m-1.6 1.8l.8-.8m-1.6 1.4l.8-.7m-1.6 1.3l.8-.6m-1.4 1l.6-.4m-1.2.5l.5-.1m5.2-6.4l-.3-.1m.5.4l-.2-.3m.1.8l.1-.5m-.4 1.2l.3-.7m-.8 1.4l.5-.7m-1.1 1.5l.7-.8m.8-2.5l-.4-.1m.5.5l-.2-.4m.2.9l.1-.5m-.5 1.3l.4-.7m-.9 1.4l.5-.8m-1.2 1.7l.7-.9m6.7-7.5l.8-.9m-1.6 1.7l.8-.8m-1.6 1.5l.8-.7m-1.6 1.2l.8-.5m-1.4.8l.6-.3m-1 .4l.4-.1m6.1-6.3l-.2-.1m.2.4l.1-.3m-.4.9l.3-.5m-.8 1.1l.5-.7m-1.2 1.5l.7-.8m-1.5 1.6l.8-.8m1.6-2.6l-.2-.1m.2.5v-.4m-.3.9l.3-.5m-.8 1.3l.5-.8m-1.2 1.6l.7-.8m-1.6 1.7l.8-.9m12.2-12.6l-.1-.1m0 .5l.1-.4m-.5.9l.4-.5m-1 1.2l.6-.7m-1.4 1.5l.8-.8m-1.7 1.6l.9-.8m1.8-2.1v-.1m-.2.4l.2-.3m-.6.8l.4-.5m-2.5 2.6l2.1-2.1m-3.9 3.8l1.8-1.7m-2.7 2.4l.9-.7m-1.6 1.2l.8-.5m-1.5.8l.7-.3m-1.1.4l.4-.1m-50.1 19.6c-.1-.4-.5-.5-.9-.5-.5 0-.9.2-1 .5m2-.1c0-.4-.5-.7-1-.7s-1 .3-1 .7c0 .4.4.7 1 .7.5 0 1-.3 1-.7m10.3-15.5l-1-.1m1.9.5l-.9-.4m1.5 1l-.7-.6m1.2 1.4l-.4-.8m2.5-11.1l-1-.1m2 .3l-1-.2m1.8.5l-.8-.3m1.5.7l-.7-.4m-22.6 16.3H98m0 0h.1v.1H98v-.1m-9.6 4.2H98m0 0h.1v.1H98v-.1m-4.1-4.8H98m0 0h.1v.1H98v-.1m-4.1 4.8v-4.8m0 0h.1v.1h-.1v-.1m-5.5-.6h9.1m-.1 0h.1v.1h-.1v-.1m.6 7.8v-7.2"/><path fill="none" stroke="#000" stroke-linecap="square" stroke-miterlimit="10" stroke-width=".413" d="M98 234.2h.1v.1H98v-.1m66.8-25.9v-.9m-67.2 26.2h-.1m.2 0l-.1-.1m.3.3l-.2-.1m.3.3l-.1-.2m.1.4v-.2m66.8-26.6h.1v.1h-.1v-.1m-76.4-.6h75.8m0 0h.1v.1h-.1v-.1m.2.1l-.2-.1m.4.2l-.2-.1m.3.2l-.1-.1m.2.3l-.1-.2m.1.3l-.1-.1m-55.2 34.4l-.2.4m.3-.8l-.2.4m.4-.7l-.2.4m.3-.9l-.1.4m.4-.7l-.2.3m.3-.7l-.1.4m.8-1.8l-.7 1.4m.8-1.8l-.1.4m.7-1.5l-.5 1.1m.6-1.4l-.1.3m.5-1l-.4.7m.5-1.2l-.2.4m.8-1.4l-.5 1.1m.6-1.5l-.1.4m1.4-2.9L113 234m1.5-2.9l-.2.4m.7-1.5l-.5 1.1m.7-1.5l-.2.4m.5-1l-.4.6m.6-.9l-.2.4m.4-.7l-.2.3m.3-.7l-.1.4m.3-.6l-.2.2m.4-.6l-.2.4m.5-1l-.4.6m.5-.9l-.1.3m.3-.6l-.2.3m.4-.7l-.2.4m.9-1.6l-.7 1.2m.8-1.5l-.1.3m.7-1.2l-.5.9m.7-1.2l-.2.4m.9-1.6l-.7 1.2m.9-1.6l-.2.4m.7-1.3l-.5.9m.7-1.2l-.2.4m-10.9 21.4h.1v.1h-.1v-.1m-.3-1.1l-.1.4m.5-1.2l-.4.8m.5-1.1l-.1.4m.3-.7l-.2.3m.6-1l-.4.7m.5-1.1l-.1.4m.3-.7l-.2.3m.3-.7l-.2.4m.4-.7l-.1.4m.2-.8l-.2.4m.4-.7l-.2.3m.3-.6l-.1.4m.3-.8l-.2.4m.4-.7l-.2.3m.4-.7l-.2.4m.3-.7l-.1.3m.5-1l-.4.7m.5-1l-.2.3m.4-.6l-.2.4m.3-.7l-.1.3m.7-1.4l-.5 1.1m.7-1.4l-.2.3m.7-1.4l-.5 1.1m.6-1.4l-.1.3m.4-.7l-.2.4m.3-.7l-.1.4m.3-.7l-.2.3m.3-.6l-.1.3m.3-.7l-.2.4m.8-1.3l-.5.9m.6-1.2l-.1.3m.3-.6l-.2.3m.3-.6l-.2.4m.4-.7l-.2.2m.4-.5l-.2.3m.3-.6l-.1.3m.3-.6l-.2.4m.4-.7l-.2.2m.5-.8l-.4.6m.6-.9l-.1.3m.3-.6l-.2.3m.3-.6l-.1.3m1.7-3l-1.6 2.7m1.8-3l-.2.4m.4-.7l-.2.2m.4-.5l-.2.4m-9.8 21l.1-.1m-.3.1l.1-.1m-.2.2l.1-.1m-.5.1h.4m-.5-.1l.1.1m-.2-.2l.1.1m-.2-.3l.1.2m0-.3l-.1.2m.1-.5l-.1.2m.1-.2h.1v.1h-.1v-.1m1.2.1l-.2.4m.5-1.1l-.4.7m.6-1.1l-.2.4m.3-.8l-.1.4m.4-.7l-.2.4m.3-.8l-.1.4m.4-1.1l-.4.7m.6-1.1l-.1.4m.2-.7l-.2.4m.4-.7l-.2.3m.6-1l-.4.7m.5-1.1l-.1.4m.6-1.5l-.5 1.1m.7-1.4l-.2.3m.4-.6l-.2.4m.3-.8l-.1.4m1.4-2.9l-1.3 2.5m1.5-2.9l-.2.4m.3-.7l-.1.4m.3-.8l-.2.4m.5-.8l-.2.4m.3-.7l-.1.4m.3-.7l-.2.2m.3-.5l-.2.4m.4-.7l-.2.3m.3-.6l-.1.3m.5-.9l-.4.6m.5-.9l-.1.3m.3-.6l-.2.3m.4-.6l-.2.2m.3-.5l-.1.3m.3-.6l-.2.3m.4-.5l-.2.2m.3-.5l-.2.3m.4-.6l-.1.3m.2-.6l-.2.3m.4-.5l-.2.2m.3-.5l-.1.3m.5-.9l-.4.6m.5-.9l-.1.2m.4-.5l-.2.3m.3-.6l-.1.3m.4-.9l-.4.6m.6-.9l-.1.3m.3-.5l-.2.2m.3-.5l-.1.3m.4-.6l-.2.3m.3-.6l-.1.3m.3-.6l-.2.3m.3-.6l-.1.3m-.6-.9l-.1.1m.1-.2l-.1.1m.3-.1h-.2m.6 0h-.4m.7.2l-.2-.2m.2.5v-.3m-.2.5l.1-.2m-10.9 21.1h.1v.1h-.1v-.1m-2.1-.9l-.1.4m.5-1.2l-.4.7m.5-1l-.1.4m.3-.7l-.2.3m.6-1l-.4.7m.5-1.1l-.1.4m.3-.7l-.2.3m.3-.7l-.2.4m.4-.7l-.1.4m.2-.8l-.2.4m.4-.7l-.2.3m.3-.6l-.1.4m.3-.8l-.2.4m.4-.7l-.2.3m.4-.7l-.2.4m.3-.7l-.1.3m.5-1l-.4.7m.5-1l-.1.3m.3-.6l-.2.4m.3-.7l-.1.3m.7-1.4l-.5 1.1m.7-1.4l-.2.3m.3-.7l-.1.4m.3-.7l-.2.4m.4-.8l-.2.4m.4-.7l-.2.3m.4-.7l-.2.4m.3-.7l-.1.4m.3-.7l-.2.3m.3-.6l-.1.3m.3-.7l-.2.4m.4-.7l-.2.3m.3-.6l-.1.3m.4-.6l-.2.3m.3-.6l-.1.3m.3-.6l-.2.3m.3-.6l-.2.4m.4-.7l-.2.2m.4-.5l-.2.3m.3-.6l-.1.3m.3-.6l-.2.4m.4-.7l-.2.2m.9-1.4l-.7 1.2m.8-1.5l-.1.3m1.7-3l-1.6 2.7m1.8-3l-.2.4m.4-.7l-.2.2m.4-.5l-.2.4m-10.7 20.3h.1v.1h-.1v-.1m3 .1l-.2.4m.5-1.1l-.4.7m.6-1.1l-.2.4m.4-.8l-.2.4m.3-.7l-.1.4m.8-1.9l-.7 1.4m.8-1.7l-.1.4m.3-.7l-.2.3m.8-1.4l-.5 1.1m.6-1.5l-.1.4m.4-1.1l-.4.7m.6-1l-.2.3m.4-.6l-.2.4m.3-.8l-.1.4m1.7-3.6l-1.6 3.2m1.9-3.6l-.2.4m.8-1.7l-.7 1.3m.9-1.6l-.2.3m.3-.6l-.1.3m.7-1.2l-.5.9m.6-1.2l-.1.3m.3-.6l-.2.2m.4-.5l-.2.3m.3-.6l-.1.3m.3-.5l-.2.2m.3-.5l-.1.3m.4-.9l-.4.6m.6-.8l-.2.2m.4-.5l-.2.3m.3-.6l-.1.3m.3-.6l-.2.3m.4-.6l-.2.2m.3-.5l-.1.3m.8-1.5l-.7 1.2m.8-1.4l-.1.2m.4-.5l-.2.3m.3-.6l-.1.3m.3-.6l-.2.3m.4-.6l-.1.3m.3-.6l-.2.3m-10.7 20.6h.1v.1h-.1v-.1m-2.3 1.2l.4.2m-.7-.4l.3.2m-.5-.6l.2.4m-.2-.7l.1.4m-.2-.9l.1.4m0-.8l-.1.4m2.6.6l.2-.4m-.5.7l.3-.4m-.6.7l.4-.3m-.8.6l.4-.2m-.7.3l.4-.1m-.7.1h.3m10.5-23.3l-.7.5m1.3-.8l-.7.4m1.3-.5l-.6.1m1 .1l-.4-.2m.7.7l-.2-.4m.3 1.1l-.1-.7m11.7 3.9l9.2-6.5m0 0h.1v.1h-.1v-.1m-22.4 15.9l8.3-5.9m0 0h.1v.1h-.1v-.1M88.4 254h30.7m0 0h.1v.1h-.1v-.1m-30.7 8.4h30.7m0 0h.1v.1h-.1v-.1m0 0V254"/><path fill="none" stroke="#000" stroke-linecap="square" stroke-miterlimit="10" stroke-width=".413" d="M119.1 254h.1v.1h-.1v-.1m-30.7-3.6h28.9m0 0h.1v.1h-.1v-.1m.6 3.6v-3m0 0h.1v.1h-.1v-.1m-29.5 15h28.9m.1-15.6l-.2-.1m.5.3l-.2-.1m.3.2l-.1-.2m.2.4l-.1-.1m.1.2v-.1m-.6 15.1h.1v.1h-.1v-.1m.6-.6v-3m0 0h.1v.1h-.1v-.1M57.8 254h30.6m29.5 11.6v-.1m-.1.2l.1-.2m-.2.4l.1-.1m-.4.2l.2-.1m-.3.1h.2m-29.1-12h.1v.1h-.1v-.1m-30.6 8.4h30.6m0 0h.1v.1h-.1v-.1m-30.6 0V254m0 0h.1v.1h-.1v-.1m1.8-3.6h28.8m0 0h.1v.1h-.1v-.1M59 254v-3m0 0h.1v.1H59v-.1m.6 15h28.8M59 250.9v.1m.1-.3l-.1.1m.2-.2l-.1.2m.3-.4l-.2.1m.4-.1l-.2.1m29 15.5h.1v.1h-.1v-.1m-29.4-.6v-3m0 0h.1v.1H59v-.1m.4 3.6h.2m-.4-.1l.2.1m-.3-.3l.1.1m-.2-.2l.1.2m-.1-.4v.1m113.6-17.9l.5 2.8.4-2.8z"/><path fill="none" stroke="#000" stroke-linecap="square" stroke-miterlimit="10" stroke-width=".413" d="M172.6 247.6l.5 2.8.4-2.8zm.9 21.3l-.4-2.9-.5 2.9z"/><path fill="none" stroke="#000" stroke-linecap="square" stroke-miterlimit="10" stroke-width=".413" d="M173.5 268.9l-.4-2.9-.5 2.9zm-.4 0V266"/><path fill="none" stroke="#000" stroke-linecap="square" stroke-miterlimit="10" stroke-width=".413" d="M173.1 266h.1v.1h-.1v-.1m0-15.6v-5.7m0 0h.1v.1h-.1v-.1m-54.9 5.7H175m0 0h.1v.1h-.1v-.1M118.2 266H175m0 0h.1v.1h-.1v-.1m-1.5-52.2l-.4-2.8-.5 2.8z"/><path fill="none" stroke="#000" stroke-linecap="square" stroke-miterlimit="10" stroke-width=".413" d="M173.5 213.8l-.4-2.8-.5 2.8zm-.9 33.8l.5 2.8.4-2.8z"/><path fill="none" stroke="#000" stroke-linecap="square" stroke-miterlimit="10" stroke-width=".413" d="M172.6 247.6l.5 2.8.4-2.8zm.5-25.4V211m0 0h.1v.1h-.1v-.1m0 39.4v-11.5m0 0h.1v.1h-.1v-.1m-7.4-27.9h9.3m0 0h.1v.1h-.1v-.1m-65.2 39.4H175m0 0h.1v.1h-.1v-.1m-2.4-44.9l.5 2.8.4-2.8z"/><path fill="none" stroke="#000" stroke-linecap="square" stroke-miterlimit="10" stroke-width=".413" d="M172.6 205.5l.5 2.8.4-2.8zm.9 8.3l-.4-2.8-.5 2.8z"/><path fill="none" stroke="#000" stroke-linecap="square" stroke-miterlimit="10" stroke-width=".413" d="M173.5 213.8l-.4-2.8-.5 2.8zm-.4-5.5V202m0 0h.1v.1h-.1v-.1m0 14.8V211"/><path fill="none" stroke="#000" stroke-linecap="square" stroke-miterlimit="10" stroke-width=".413" d="M173.1 211h.1v.1h-.1v-.1m-6-2.7h7.9m0 0h.1v.1h-.1v-.1m-9.3 2.7h9.3m0 0h.1v.1h-.1v-.1M6.9 204l.5 2.8.5-2.8z"/><path fill="none" stroke="#000" stroke-linecap="square" stroke-miterlimit="10" stroke-width=".413" d="M6.9 204l.5 2.8.5-2.8zm1 7.2l-.5-2.9-.5 2.9z"/><path fill="none" stroke="#000" stroke-linecap="square" stroke-miterlimit="10" stroke-width=".413" d="M7.9 211.2l-.5-2.9-.5 2.9zm-.5-4.4v-3.4m0 0h.1v.1h-.1v-.1m0 10.7v-5.8"/><path fill="none" stroke="#000" stroke-linecap="square" stroke-miterlimit="10" stroke-width=".413" d="M7.4 208.3h.1v.1h-.1v-.1m-1.9-1.5h6.2m0 0h.1v.1h-.1v-.1m-6.2 1.5h4.2m0 0h.1v.1h-.1v-.1m-5.5 5.5l-.5-2.8-.4 2.8z"/><path fill="none" stroke="#000" stroke-linecap="square" stroke-miterlimit="10" stroke-width=".413" d="M4.2 213.8l-.5-2.8-.4 2.8zm-.9 49.4l.4 2.8.5-2.8z"/><path fill="none" stroke="#000" stroke-linecap="square" stroke-miterlimit="10" stroke-width=".413" d="M3.3 263.2l.4 2.8.5-2.8zm.4-31.5V211m0 0h.1v.1h-.1v-.1m0 55v-17.7m0 0h.1v.1h-.1v-.1M1.9 211h9.2m0 0h.1v.1h-.1v-.1m-9.2 55h56.7m0 0h.1v.1h-.1v-.1m2 9.8l-2.8.5 2.8.4z"/><path fill="none" stroke="#000" stroke-linecap="square" stroke-miterlimit="10" stroke-width=".413" d="M60.6 275.8l-2.8.5 2.8.4zm55.6.9l2.9-.4-2.9-.5z"/><path fill="none" stroke="#000" stroke-linecap="square" stroke-miterlimit="10" stroke-width=".413" d="M116.2 276.7l2.9-.4-2.9-.5zm-58.4-.4h16.7m0 0h.1v.1h-.1v-.1m29.3 0h15.3"/><path fill="none" stroke="#000" stroke-linecap="square" stroke-miterlimit="10" stroke-width=".413" d="M119.1 276.3h.1v.1h-.1v-.1m-61.3 1.9v-14.8m0 0h.1v.1h-.1v-.1m61.3 14.8v-14.8m0 0h.1v.1h-.1v-.1m23.4-211.1l-.9 2.7 1.7-2.3z"/><path fill="none" stroke="#000" stroke-linecap="square" stroke-miterlimit="10" stroke-width=".413" d="M142.5 52.3l-.9 2.7 1.7-2.3zm-.9 2.7l24.6-45.5m0 0h.1v.1h-.1v-.1m-24 0h24"/><path fill="none" stroke="#000" stroke-linecap="square" stroke-miterlimit="10" stroke-width=".413" d="M166.2 9.5h.1v.1h-.1v-.1M13.5 22.4l-2.9.5 2.9.5z"/><path fill="none" stroke="#000" stroke-linecap="square" stroke-miterlimit="10" stroke-width=".413" d="M13.5 22.4l-2.9.5 2.9.5zm149.9 1l2.8-.5-2.8-.5z"/><path fill="none" stroke="#000" stroke-linecap="square" stroke-miterlimit="10" stroke-width=".413" d="M163.4 23.4l2.8-.5-2.8-.5zm-152.8-.5h66.8m0 0h.1v.1h-.1v-.1m21 0h67.8"/><path fill="none" stroke="#000" stroke-linecap="square" stroke-miterlimit="10" stroke-width=".413" d="M166.2 22.9h.1v.1h-.1v-.1M10.6 108.7V21m0 0h.1v.1h-.1V21m155.6 87.7V21m0 0h.1v.1h-.1V21m-12.5 226.6l.5 2.8.4-2.8z"/><path fill="none" stroke="#000" stroke-linecap="square" stroke-miterlimit="10" stroke-width=".413" d="M153.7 247.6l.5 2.8.4-2.8zm.9 9.3l-.4-2.9-.5 2.9z"/><path fill="none" stroke="#000" stroke-linecap="square" stroke-miterlimit="10" stroke-width=".413" d="M154.6 256.9l-.4-2.9-.5 2.9zm-.4-6.5V244m0 0h.1v.1h-.1v-.1m0 15.7V254"/><path fill="none" stroke="#000" stroke-linecap="square" stroke-miterlimit="10" stroke-width=".413" d="M154.2 254h.1v.1h-.1v-.1m-36-3.6h37.9m0 0h.1v.1h-.1v-.1M120 254h36.1m0 0h.1v.1h-.1v-.1m18-211l-.4-2.8-.5 2.8z"/><path fill="none" stroke="#000" stroke-linecap="square" stroke-miterlimit="10" stroke-width=".413" d="M174.1 43l-.4-2.8-.5 2.8zm-.9 133.2l.5 2.8.4-2.8z"/><path fill="none" stroke="#000" stroke-linecap="square" stroke-miterlimit="10" stroke-width=".413" d="M173.2 176.2l.5 2.8.4-2.8zm.5-77.2V40.2m0 0h.1v.1h-.1v-.1m0 138.8v-58.9m0 0h.1v.1h-.1v-.1M89.4 40.2h86.2m0 0h.1v.1h-.1v-.1M89.4 179h86.2m0 0h.1v.1h-.1v-.1"/><text font-family="Arial" font-size="7.919" transform="rotate(-90 230.44 54.492)">26.0</text><text font-family="Arial" font-size="7.919" transform="rotate(-90 207.1 31.152)">65.5</text><text font-family="Arial" font-size="7.919" transform="rotate(-90 188.53 12.583)">4.5</text><text font-family="Arial" font-size="7.919" transform="rotate(-90 106.48 96.192)">2.5</text><text font-family="Arial" font-size="7.919" transform="rotate(-90 127.18 120.552)">91.5</text><text font-family="Arial" font-size="7.919" transform="translate(75.028 279.172)">Ø 102.0</text><text font-family="Arial" font-size="7.948" transform="translate(72.028 6.652)">n° 8 holes 8.4 × 6.5</text><text font-family="Arial" font-size="7.948" transform="translate(101.785 16.492)">on Ø 245.0</text><text font-family="Arial" font-size="7.919" transform="translate(78.028 25.792)">259.0</text><text font-family="Arial" font-size="7.919" transform="rotate(-90 200.17 43.122)">6.0</text><text font-family="Arial" font-size="7.919" transform="rotate(-90 147.97 -28.578)">231.0</text><path fill="none" stroke="#b32317" stroke-linecap="square" stroke-miterlimit="10" stroke-width=".413" d="M5.76 14.12s2.78-.11 2.71-3.2c-.23-2.91-2.11-3.2-3.46-3.2s-2.82.66-3.16 3.2c-.08 2.87 2.75 5.22 6.13 5.22 3.84.11 6.17-2.57 6.28-4.45V2.38H9.03v12.39c.03-.03-1.81.85-3.28-.66m16.97-6.57v7.21h2.48V9.34s1.09-.44 1.05.18v5.19h2.48V8.9s.11-.96-.98-1.36c-1.17-.55-2.56.29-2.56.29v-.29h-2.48m-.7 3.53s.38-3.9-3.35-3.9c-3.76 0-3.5 3.97-3.5 3.97s-.08 3.79 3.57 3.79c2.33 0 2.97-2.02 2.97-2.02l-.87-.4s-.41 1.25-1.32 1.4c-.94.26-1.32-.15-1.35-.74v-2.1h3.83m-3.78-2.21s.11-.48.75-.48.75.48.75.48l.08 1.66h-1.58V8.87m11.32 1.65l.45.48 1.43-1.32s1.96 2.83 1.73 3.68c-.04.48-.64 1.07-1.09.88-.45-.04-.75-.51-.75-.51s.38-.48.3-1.07c-.04-.63-.6-.88-.94-.88-.34 0-1.02.29-1.02 1.07.04 1.25 1.28 2.1 2.48 2.1 1.24 0 2.52-.96 2.6-2.21.23-.99-1.43-4.05-1.43-4.05s-.38-.55-.11-.81l.49-.44-.49-.48-3.65 3.57zm12.49.59s.38-3.9-3.35-3.9c-3.76 0-3.5 3.97-3.5 3.97s-.08 3.79 3.57 3.79c2.33 0 2.97-2.02 2.97-2.02l-.87-.4s-.41 1.25-1.32 1.4c-.94.26-1.32-.15-1.35-.74v-2.1h3.84M38.22 8.9s.11-.48.75-.48.75.48.75.48l.08 1.66h-1.58V8.91m4.59-1.33v7.21h2.48V9.42s1.09-.44 1.05.18v5.19h2.48V8.94s.11-.96-.98-1.36c-1.17-.55-2.56.29-2.56.29v-.29H42.8m7.42.44a.87.85 0 1 0 1.73 0 .87.85 0 1 0-1.73 0"/><path fill="none" stroke="#b32317" stroke-linecap="square" stroke-miterlimit="10" stroke-width=".413" d="M50.82 7.65h.34c.08 0 .19 0 .19.18 0 .15-.11.18-.19.18h-.3v-.37m-.04.45h.34c.15 0 .19.11.19.18 0 .04 0 .18.04.26h.15v-.04c-.04-.04-.04-.04-.04-.11V8.2c0-.15-.08-.15-.11-.18.08-.04.15-.07.15-.22 0-.22-.15-.26-.34-.26h-.45v.99h.15v-.44"/></svg>